<?xml version="1.0" encoding="utf-8"?>
<!-- Generator: Adobe Illustrator 22.1.0, SVG Export Plug-In . SVG Version: 6.00 Build 0)  -->
<svg version="1.1" id="Layer_1" xmlns="http://www.w3.org/2000/svg" xmlns:xlink="http://www.w3.org/1999/xlink" x="0px" y="0px"
	 viewBox="0 0 507 91" enable-background="new 0 0 507 91" xml:space="preserve">
<title>Payroll (white)  Copy</title>
<desc>Created with Sketch.</desc>
<g>
	<polygon fill="#D57928" points="246.9,17.9 246.9,75.6 238.9,83.3 238.9,26.9 	"/>
	
		<linearGradient id="SVGID_1_" gradientUnits="userSpaceOnUse" x1="185.8565" y1="445.5215" x2="238.157" y2="503.1407" gradientTransform="matrix(1 0 0 1 0 -420)">
		<stop  offset="5.618000e-03" style="stop-color:#F9C517"/>
		<stop  offset="1" style="stop-color:#E78E24"/>
	</linearGradient>
	<rect x="186.4" y="26.9" fill="url(#SVGID_1_)" width="52.7" height="56.5"/>
	<polygon fill="#FDD600" points="194.7,17.9 186.4,26.9 239.1,26.9 246.9,17.9 	"/>
	<polygon fill="#90C7EA" points="129.3,20.4 181.2,13.2 176.8,25.7 125.7,32.6 	"/>
	
		<linearGradient id="SVGID_2_" gradientUnits="userSpaceOnUse" x1="127.514" y1="452.5984" x2="181.4512" y2="495.9116" gradientTransform="matrix(1 0 0 1 0 -420)">
		<stop  offset="5.618000e-03" style="stop-color:#198ACA"/>
		<stop  offset="1" style="stop-color:#00649D"/>
	</linearGradient>
	<polygon fill="url(#SVGID_2_)" points="176.8,25.7 184,76.2 132.9,83.4 125.7,32.6 	"/>
	<polyline fill="#0798D5" points="176.8,25.7 184,76.2 187.9,65.3 181.2,13.5 181.2,13.2 	"/>
	<g>
		
			<linearGradient id="SVGID_3_" gradientUnits="userSpaceOnUse" x1="98.1" y1="454.9247" x2="98.1" y2="502.1888" gradientTransform="matrix(1 0 0 1 0 -420)">
			<stop  offset="0" style="stop-color:#239F49"/>
			<stop  offset="1" style="stop-color:#008953"/>
		</linearGradient>
		<polygon fill="url(#SVGID_3_)" points="85.5,16.1 131.4,36.9 110.7,83.9 64.8,63.1 		"/>
	</g>
	<polygon fill="#95CE9F" points="80.7,0 85.5,16.1 131.4,36.9 127.6,21.4 	"/>
	<polygon fill="#69BE6C" points="80.7,0 62.3,43.9 64.8,63.1 85.5,16.1 	"/>
	
		<linearGradient id="SVGID_4_" gradientUnits="userSpaceOnUse" x1="29.5501" y1="450.3021" x2="37.6782" y2="499.3728" gradientTransform="matrix(1 0 0 1 0 -420)">
		<stop  offset="0" style="stop-color:#D71F31"/>
		<stop  offset="1" style="stop-color:#BA2436"/>
	</linearGradient>
	<polygon fill="url(#SVGID_4_)" points="55.1,25.6 62.7,75.4 12,83.3 3.8,33.4 	"/>
	<polygon fill="#761116" points="58.6,7.4 66.1,57.7 62.7,75.4 55.1,25.6 	"/>
	<path fill="#FFFFFF" d="M231,47.3c-1-2.7-2.6-5-4.6-7s-4.1-3.5-6.6-4.5s-5.1-1.5-7.9-1.5s-5.5,0.5-7.9,1.5s-4.6,2.5-6.6,4.5
		s-3.6,4.4-4.6,7c-1,2.7-1.6,5.5-1.6,8.6c0,3.1,0.5,5.9,1.6,8.5c1,2.7,2.6,5,4.6,7.1c1.9,2,4.1,3.4,6.5,4.5c2.4,1,5.1,1.5,8,1.5
		c2.8,0,5.4-0.5,7.8-1.5c2.4-1,4.6-2.5,6.6-4.5c2-2.1,3.6-4.5,4.6-7.1s1.6-5.5,1.6-8.5C232.6,52.7,232.1,49.9,231,47.3z M220.2,65.9
		c-2,2.4-4.8,3.7-8.2,3.7c-3.5,0-6.3-1.2-8.3-3.7c-2-2.4-3.1-5.8-3.1-10.1c0-4.4,1-7.7,3.1-10.3c2-2.4,4.8-3.7,8.3-3.7
		s6.3,1.3,8.2,3.7c2,2.4,3.1,5.9,3.1,10.3C223.2,60.1,222.2,63.5,220.2,65.9z M37.8,54.5L37.8,54.5L37.8,54.5L37.8,54.5L37.8,54.5z
		 M49.7,67.4c-0.4-0.5-0.9-0.9-1.6-1.1c-0.7-0.2-1.5-0.3-2.4-0.3s-2,0.1-3.1,0.3l-13.4,2.3c0.2-1,0.6-2.4,1.6-4.1
		c1-1.9,2.5-4.1,4.5-6.7l0,0c0.7-0.9,1.2-1.6,1.6-2c0.2-0.3,0.6-0.8,1.1-1.4c3.1-4,4.9-7.3,5.7-9.9c0.4-1.5,0.7-2.9,0.8-4.4
		c0-0.4,0-0.8,0-1.2c0-1.1-0.1-2.1-0.2-3.1c-0.2-0.9-0.4-1.7-0.7-2.3s-0.7-1.1-1.2-1.4c-0.5-0.3-1.3-0.5-2.3-0.5
		c-0.9,0-1.8,0.1-3,0.3l-15.5,2.7c-1.9,0.3-3.3,0.9-4.1,1.7c-0.7,0.6-1.1,1.5-1.1,2.5c0,0.2,0,0.5,0.1,0.8c0.2,1.3,0.9,2.3,2,2.7
		c0.6,0.3,1.4,0.5,2.3,0.5c0.6,0,1.3-0.1,2-0.2l12.9-2.3c0,0.2,0,0.5,0,0.7c0,0.8-0.2,1.6-0.4,2.3c-0.4,1.1-1.3,2.6-2.9,4.5
		c-0.5,0.5-1.1,1.3-2,2.5c-3.5,4.2-6,7.8-7.5,10.9l0,0l0,0c-1.1,2-1.8,4.1-2.2,6.1c-0.2,1.2-0.4,2.3-0.4,3.4c0,0.8,0.1,1.5,0.2,2.3
		c0.2,1,0.5,1.9,0.8,2.6s0.8,1.2,1.3,1.5c0.5,0.2,1.3,0.4,2.3,0.4c1.3,0,3.1-0.2,5.2-0.5l14-2.4c2.5-0.4,4.2-1,5.2-1.9
		c0.8-0.6,1.3-1.6,1.3-2.7c0-0.2,0-0.5-0.1-0.9C50.4,68.5,50.1,67.9,49.7,67.4z M113.4,33.8c-1.8-1.9-4-3.4-6.6-4.5
		s-5.2-1.6-7.7-1.6h-0.2c-2.7,0-5.2,0.6-7.8,1.7l0,0c-2.7,1.2-5,2.8-7,4.9s-3.6,4.6-4.9,7.6c-1.3,2.9-2,5.8-2,8.8c0,0.3,0,0.6,0,1
		c0,2.6,0.5,5.1,1.3,7.6c0.9,2.6,2.3,4.9,4.1,6.7s4.1,3.4,6.7,4.5l0,0c2.5,1.1,5.1,1.6,7.7,1.6h0.1c2.7,0,5.2-0.5,7.8-1.6l0,0l0,0
		c2.7-1.2,5.1-2.9,7.1-5s3.7-4.6,4.9-7.6c1.3-2.9,2-5.9,2-8.8c0-0.3,0-0.5,0-0.9c0-2.6-0.5-5.2-1.4-7.7
		C116.6,37.9,115.2,35.7,113.4,33.8z M108.4,54.3c-1.7,4.1-4,6.9-6.8,8.5c-1.5,0.9-3.1,1.3-4.7,1.3c-1.4,0-2.8-0.3-4.3-0.9
		c-3.2-1.4-5.2-3.6-6.1-6.7c-0.3-1-0.5-2.1-0.5-3.3c0-2.3,0.5-4.8,1.7-7.5c1.8-4.1,4.1-7,6.9-8.6c1.5-0.9,3.1-1.3,4.7-1.3
		c1.4,0,2.9,0.3,4.4,0.9c3.2,1.3,5.2,3.6,6,6.7c0.3,1,0.4,2.1,0.4,3.2C110.2,48.9,109.5,51.5,108.4,54.3z M168.1,35.4
		c-0.2-1.6-0.8-2.7-1.6-3.5c-0.7-0.6-1.6-0.9-2.6-0.9c-0.2,0-0.5,0-0.8,0.1c-1.3,0.2-2.3,0.8-3,1.8c-0.5,0.7-0.7,1.6-0.7,2.7
		c0,0.4,0,0.8,0.1,1.3l1.9,13.1l-14.7,2l-1.9-13.1c-0.2-1.6-0.8-2.7-1.6-3.5c-0.7-0.6-1.6-1-2.5-1c-0.2,0-0.5,0-0.7,0.1
		c-1.4,0.2-2.4,0.8-3.1,1.8c-0.5,0.7-0.7,1.6-0.7,2.7c0,0.4,0,0.8,0.1,1.3l5,34.2c0.2,1.6,0.8,2.7,1.7,3.5c0.7,0.6,1.6,0.9,2.6,0.9
		c0.3,0,0.5,0,0.9-0.1c1.3-0.2,2.3-0.8,2.8-1.8c0.4-0.7,0.6-1.6,0.6-2.6c0-0.4,0-0.8-0.1-1.3l-2-13.5l14.7-2.2l2,13.5
		c0.2,1.6,0.8,2.7,1.6,3.5c0.7,0.6,1.6,0.9,2.6,0.9c0.2,0,0.5,0,0.8-0.1c1.3-0.2,2.3-0.8,3-1.8c0.5-0.7,0.6-1.6,0.6-2.6
		c0-0.4,0-0.8-0.1-1.3L168.1,35.4z"/>
	<polygon fill="#ED463E" points="3.8,33.4 4.8,28.4 7.4,15.6 58.6,7.4 55.1,25.6 	"/>
</g>
<path fill="#FFFFFF" d="M272,76V24h22.9c10.9,0,17,7.5,17,16.3s-6.2,16.3-17,16.3h-13.7V76H272z M302.5,40.3c0-5-3.7-8.3-8.9-8.3
	h-12.5v16.5h12.5C298.8,48.6,302.5,45.3,302.5,40.3z"/>
<path fill="#FFFFFF" d="M341.8,76V72c-2.8,3.2-7.2,5-12.2,5c-6.2,0-13.1-4.1-13.1-12.5c0-8.7,6.9-12.2,13.1-12.2
	c5.1,0,9.4,1.6,12.2,4.8v-5.6c0-4.4-3.6-7-8.8-7c-4.2,0-7.9,1.6-11.2,4.8l-3.4-5.7c4.4-4.1,9.8-6.1,15.8-6.1
	c8.3,0,15.7,3.5,15.7,13.7v25H341.8z M341.8,67.4v-5.7c-1.9-2.6-5.4-3.9-9-3.9c-4.6,0-8,2.7-8,6.8c0,4.1,3.4,6.7,8,6.7
	C336.5,71.3,340,70,341.8,67.4z"/>
<path fill="#FFFFFF" d="M361.4,83.4c0.9,0.4,2.2,0.6,3.1,0.6c2.6,0,4.3-0.8,5.4-3.3l1.9-4.3l-15.4-38.1h8.7l11,28.2l11-28.2h8.8
	l-18.2,44.5c-2.6,6.4-7.1,8.4-12.9,8.5c-1.2,0-3.4-0.2-4.6-0.5L361.4,83.4z"/>
<path fill="#FFFFFF" d="M402.2,76V38.3h8.2v5.5c2.8-3.6,7.3-6.4,12.2-6.4v8.1c-0.7-0.2-1.6-0.2-2.6-0.2c-3.4,0-8,2.3-9.7,5V76H402.2
	z"/>
<path fill="#FFFFFF" d="M428.1,57.1c0-10.8,7.4-19.7,19.3-19.7c12.1,0,19.4,9,19.4,19.7c0,10.8-7.3,19.8-19.4,19.8
	C435.5,76.9,428.1,68,428.1,57.1z M458.4,57.1c0-6.6-3.9-12.5-10.9-12.5c-6.9,0-10.8,5.9-10.8,12.5c0,6.7,3.9,12.6,10.8,12.6
	C454.5,69.7,458.4,63.8,458.4,57.1z"/>
<path fill="#FFFFFF" d="M476.3,76V24h8.2v52H476.3z"/>
<path fill="#FFFFFF" d="M496.3,76V24h8.2v52H496.3z"/>
</svg>
